<?xml version="1.0" encoding="UTF-8"?>
<svg xmlns="http://www.w3.org/2000/svg" version="1.1" xmlns:xlink="http://www.w3.org/1999/xlink" viewBox="0 0 801.8 643.61">
  <!-- Generator: Adobe Illustrator 29.0.0, SVG Export Plug-In . SVG Version: 2.1.0 Build 186)  -->
  <defs>
    <style>
      .st0 {
        fill: #fff;
      }

      .st0, .st1 {
        display: none;
      }

      .st2, .st3 {
        font-size: 36px;
      }

      .st4, .st3 {
        font-family: EdwardianScriptITC, 'Edwardian Script ITC';
      }

      .st5 {
        font-size: 40px;
      }
    </style>
    <path id="path" d="M401.97,489.73c13.68,9.03,68.53,61.84,144.85,52.06,52.73-6.76,98.01-38.69,121.52-74.37"/>
  </defs>
  <g id="_Слой_4" data-name="Слой_4" class="st1">
    <rect x="39.11" y="35.29" width="701.24" height="526.82"/>
  </g>
  <g id="_Слой_1" data-name="Слой_1">
    <g>
      <path d="M379.36,436.16c-.04,1.87.11,4.29-.76,4.51-1.54.39-7.07-8.83-8.3-10.68-61.84-92.9-121.92-187.07-182.65-280.7-2.24-3.46-4.98-6.81-9.53-7.61l1.08,89.44c36.97,8.88,56.83,45.84,76.95,74.81,55.56,79.99,99.77,166.26,186.45,218.77,66.97,40.57,158.32,26.06,210.49-31.55,67.42-74.45,56.75-191.16-24.06-250.89-4.16-3.07-21.29-14.72-25.43-14.66-1.52.02-22.68,12.32-26.8,14.25-18.08,8.49-37.19,13.97-55.64,21.36-7.87,3.15-29.13,9.49-20.59,20.51,4.74,6.12,37.56,13.81,47.53,18.47,37.77,17.66,51.97,58.25,76.19,89.81,15.12,19.71,27.95,35.01,53.33,39.7,1.65.31,1.71-.64,1.51,1.97h-51.5c-2.61,0-12.79-10.51-14.92-13.08-33.96-41.11-48.7-90.74-95.26-122.74-7.67-5.27-27.96-12.11-19.78-25.13,7.52-11.99,51.44-29.3,66.13-37.87,7.22-4.22,14.97-9.32,21.31-14.67.01-2.39-17.73-6.55-20.77-7.21-8.91-1.94-18.06-3.63-27.2-3.29,2.64,7.19,5.94,11.34,1.21,18.71-7.46,11.61-27.65,1.79-23.77-12.45.47-1.72,3.48-5.49,4.89-6.59,2.85-2.23,5.97-3.31,6.37-3.39,1.24-.24,18.16.51,20.79.73,14.41,1.19,28.39,5.58,42.06,9.94,25.88-17.01,42.75-61.4,26.44-89.44-.6-1.03-5.53-4.63-1.44-5.46.6-.12,3.71-.19,5.31-.18,8.51.06,14.26-.58,21.7.55,14.93,20,9.1,52.48-3.19,72.44-7.37,11.97-19.33,20.18-28.32,30.52,16.32,10.66,32.03,21.3,45.46,35.6,81.79,87.05,50.25,231.9-59.84,277.19-121.81,50.11-217.13-46.73-280.49-137.86-30.26-43.52-58.41-97.65-93.21-136.79-11.28-12.68-25.98-22.23-42.08-27.83l.06,3.76c1.55,47.34-4.68,95.84,8.13,141.97,4.38,15.76,13.92,38.75,29.04,46.96,5.14,2.79,10.89,2.07,14.88,5.62h-83c-.81-3.19,3.62-1.79,6.06-2.44,9.09-2.45,14.51-7.55,17.47-16.53.68-2.06,3.7-15.14,3.05-16.05-1.6-2.24-6.47-.02-9.03.07-102.59,3.45-126.96-126.27-43.21-162.22,17.51-7.51,34.92-7.85,53.68-5.82-.77-19.29,1.01-39.33.04-58.55-.58-11.52-2.41-31.07-10.06-39.94-4.5-5.21-11.2-7.34-17.97-7.53-.27-2.2.78-1.99,1.5-1.99h52c55.31,82.3,107.97,166.43,163.26,248.74,2.62,3.89,6.09,9.98,8.81,13.19.8.94,1.44,2.29,2.91,2.09.73.02.99-1.92.99-2.51.59-52.28-1.48-104.73-.44-157.04-2.29-28.99-9.79-87.64-41.06-99.94-3.45-1.36-7.27-2.36-10.99-2.52-.33-.26-.28-1.9.63-1.99h78.24c.72,0,4.18-.39,4.13,1.99-33.32.93-27.47,48.4-27.95,71.55-1.62,77.03.62,155.75-1.03,232.96M176,234.78c-61.59-14.33-115.62,42.64-97.15,103.65,11.39,37.61,47.85,60.49,86.75,57.22,2.3-.19,8.61-.8,9.33-2.67l1.08-158.21Z"/>
      <path d="M508.61,122.68c.74,0,2.96-.06,2.5,1.99-18.84-.04-24.83,15.47-26.99,31.51.98,75.6-4.71,154.67-1.05,230.04.8,16.55,1.88,39.82,20.98,45.02,2.69.73,7.85-.85,7.06,2.44h-83c-.16-2.49-.26-1.72,1.5-1.98,5.19-.76,8.6-.47,13.38-3.64,12.29-8.14,13.59-36.29,14.17-49.83,3.13-73.94-.93-149.19-2.06-223.04-2.41-16.16-7.85-30.86-26.99-30.52-.07-.64,1.33-1.99,1.5-1.99,26.33,0,52.67.16,79,0Z"/>
      <path class="st0" d="M176,234.78l-1.08,158.21c-.71,1.87-7.03,2.48-9.33,2.67-38.9,3.26-75.36-19.61-86.75-57.22-18.47-61.01,35.56-117.98,97.15-103.65Z"/>
    </g>
  </g>
  <g id="_Слой_2" data-name="Слой_2" class="st1">
    <text class="st3" transform="translate(453.53 499.68)"><tspan x="0" y="0">12.06.2026</tspan></text>
  </g>
  <g id="_Слой_3" data-name="Слой_3">
    <text>
      <textPath startOffset=".05%" xlink:href="#path"><tspan class="st4"><tspan class="st2" x="0" y="0" xml:space="preserve">       </tspan><tspan class="st5" x="0" y="0">12.06.2026</tspan></tspan>
      </textPath></text>
  </g>
</svg>